<?xml version="1.0" encoding="UTF-8" standalone="no"?>
<svg
   xmlns:dc="http://purl.org/dc/elements/1.1/"
   xmlns:cc="http://creativecommons.org/ns#"
   xmlns:rdf="http://www.w3.org/1999/02/22-rdf-syntax-ns#"
   xmlns:svg="http://www.w3.org/2000/svg"
   xmlns="http://www.w3.org/2000/svg"
   width="360.1875pt"
   height="97.40625pt"
   viewBox="0 0 360.1875 97.406248"
   version="1.2"
   id="svg40">
  <metadata
     id="metadata44">
    <rdf:RDF>
      <cc:Work
         rdf:about="">
        <dc:format>image/svg+xml</dc:format>
        <dc:type
           rdf:resource="http://purl.org/dc/dcmitype/StillImage" />
        <dc:title></dc:title>
      </cc:Work>
    </rdf:RDF>
  </metadata>
  <defs
     id="defs5">
    <clipPath
       id="clip1">
      <path
         d="M 0,192 H 576 V 480.69922 H 0 Z m 0,0"
         id="path2" />
    </clipPath>
  </defs>
  <path
     style="fill:#141111;fill-opacity:1;fill-rule:nonzero;stroke:none"
     d="M 69.375,41.691406 H 39.10937 c -0.78125,0 -1.41406,0.632812 -1.41406,1.414062 v 14.796876 c 0,0.78125 0.63281,1.417968 1.41406,1.417968 h 11.80469 v 18.386719 c 0,0 -2.64844,0.902344 -9.98047,0.902344 -8.64843,0 -20.72656,-3.160157 -20.72656,-29.722657 0,-26.570312 12.57813,-30.066406 24.38672,-30.066406 10.22266,0 14.62891,1.800782 17.42969,2.667969 0.88281,0.269531 1.69531,-0.605469 1.69531,-1.386719 l 3.375,-14.3007808 c 0,-0.363281 -0.12109,-0.804687 -0.53906,-1.105469 C 65.41797,3.8867182 58.47266,0 40.93359,0 20.73047,0 0,8.5976563 0,49.921875 0,91.25 23.73047,97.40625 43.73047,97.40625 c 16.55469,0 26.59765,-7.074219 26.59765,-7.074219 0.41407,-0.230469 0.46094,-0.808594 0.46094,-1.074219 V 43.105468 c 0,-0.78125 -0.63281,-1.414062 -1.41406,-1.414062"
     id="path25" />
  <path
     style="fill:#141111;fill-opacity:1;fill-rule:nonzero;stroke:none"
     d="m 225.35937,4.9531252 c 0,-0.7890629 -0.625,-1.4257809 -1.40625,-1.4257809 h -17.04296 c -0.77735,0 -1.41016,0.636718 -1.41016,1.4257809 0,0.00391 0.004,32.9335928 0.004,32.9335928 H 178.9415 V 4.9531252 c 0,-0.7890629 -0.62891,-1.4257809 -1.40625,-1.4257809 h -17.04297 c -0.77344,0 -1.40625,0.636718 -1.40625,1.4257809 V 94.128906 c 0,0.789062 0.63281,1.429688 1.40625,1.429688 h 17.04297 c 0.77734,0 1.40625,-0.640626 1.40625,-1.429688 V 55.984375 h 26.5625 c 0,0 -0.0469,38.140625 -0.0469,38.144531 0,0.789062 0.63281,1.429688 1.41406,1.429688 h 17.08203 c 0.78125,0 1.40235,-0.640626 1.40625,-1.429688 V 4.9531252"
     id="path27" />
  <path
     style="fill:#141111;fill-opacity:1;fill-rule:nonzero;stroke:none"
     d="m 101.53516,16.652344 c 0,-6.132813 -4.92188,-11.0937498 -10.99219,-11.0937498 -6.0625,0 -10.98438,4.9609368 -10.98438,11.0937498 0,6.132812 4.92188,11.105468 10.98438,11.105468 6.07031,0 10.99219,-4.972656 10.99219,-11.105468"
     id="path29" />
  <path
     style="fill:#141111;fill-opacity:1;fill-rule:nonzero;stroke:none"
     d="m 100.31641,75.320312 c 0,-2.289062 0,-41.167968 0,-41.167968 0,-0.78125 -0.63282,-1.417969 -1.41016,-1.417969 H 81.91797 c -0.78125,0 -1.47656,0.800781 -1.47656,1.582031 0,0 0,49.535156 0,58.976562 0,1.734376 1.07812,2.25 2.47656,2.25 0,0 7.25,0 15.30469,0 1.67968,0 2.09375,-0.824218 2.09375,-2.277343 0,-3.160157 0,-15.542969 0,-17.945313"
     id="path31" />
  <path
     style="fill:#141111;fill-opacity:1;fill-rule:nonzero;stroke:none"
     d="m 290.125,32.867187 h -16.91016 c -0.77343,0 -1.40625,0.640625 -1.40625,1.425781 v 43.726563 c 0,0 -4.29687,3.144531 -10.39453,3.144531 -6.09765,0 -7.71484,-2.769531 -7.71484,-8.738281 0,-5.980469 0,-38.132813 0,-38.132813 0,-0.785156 -0.63281,-1.425781 -1.41016,-1.425781 H 235.125 c -0.77344,0 -1.40625,0.640625 -1.40625,1.425781 0,0 0,23.285157 0,41.019532 0,17.734375 9.88281,22.074218 23.48047,22.074218 11.15625,0 20.14844,-6.164062 20.14844,-6.164062 0,0 0.42968,3.25 0.625,3.632812 0.1914,0.386719 0.69531,0.773438 1.24218,0.773438 l 10.91797,-0.05078 c 0.77344,0 1.41016,-0.636719 1.41016,-1.421875 l -0.008,-59.863282 c 0,-0.785156 -0.62891,-1.425781 -1.41016,-1.425781"
     id="path33" />
  <path
     style="fill:#141111;fill-opacity:1;fill-rule:nonzero;stroke:none"
     d="m 329.67969,81.109375 c -5.86719,-0.179688 -9.84766,-2.839844 -9.84766,-2.839844 V 50.027344 c 0,0 3.92578,-2.40625 8.74219,-2.835938 6.08984,-0.542969 11.95703,1.292969 11.95703,15.824219 0,15.316406 -2.64844,18.339843 -10.85156,18.09375 z m 6.66797,-50.246094 c -9.60547,0 -16.13672,4.285156 -16.13672,4.285156 V 4.9531252 c 0,-0.7890629 -0.63282,-1.4257809 -1.40625,-1.4257809 h -17.09375 c -0.77344,0 -1.40625,0.636718 -1.40625,1.4257809 V 94.128906 c 0,0.789062 0.63281,1.429688 1.41015,1.429688 0,0 11.85547,0 11.85938,0 0.53125,0 0.9375,-0.277344 1.23437,-0.757813 0.29688,-0.480469 0.72266,-4.113281 0.72266,-4.113281 0,0 6.98828,6.621094 20.21484,6.621094 15.53125,0 24.44141,-7.875 24.44141,-35.363282 0,-27.488281 -14.22656,-31.082031 -23.83984,-31.082031"
     id="path35" />
  <path
     style="fill:#141111;fill-opacity:1;fill-rule:nonzero;stroke:none"
     d="m 149.29687,32.726562 h -12.78515 c 0,0 -0.0195,-16.886718 -0.0195,-16.890625 0,-0.640625 -0.32813,-0.957031 -1.07032,-0.957031 h -17.41796 c -0.67969,0 -1.04297,0.296875 -1.04297,0.949219 v 17.449219 c 0,0 -8.72657,2.109374 -9.32032,2.28125 -0.58593,0.167968 -1.01953,0.710937 -1.01953,1.355468 v 10.96875 c 0,0.789063 0.62891,1.425782 1.41016,1.425782 h 8.92969 c 0,0 0,11.46875 0,26.382812 0,19.597656 13.74609,21.523438 23.02343,21.523438 4.23829,0 9.3086,-1.363282 10.14454,-1.671876 0.50781,-0.183593 0.80078,-0.710937 0.80078,-1.277343 l 0.0156,-12.066407 c 0,-0.785156 -0.66406,-1.421874 -1.41406,-1.421874 -0.74609,0 -2.65234,0.300781 -4.61328,0.300781 -6.27735,0 -8.40625,-2.917969 -8.40625,-6.695313 0,-3.777344 0,-25.074218 0,-25.074218 h 12.78515 c 0.77735,0 1.41016,-0.636719 1.41016,-1.425782 V 34.144531 c 0,-0.785156 -0.63281,-1.417969 -1.41016,-1.417969"
     id="path37" />
</svg>
